<?xml version="1.0" encoding="UTF-8"?>
<svg xmlns="http://www.w3.org/2000/svg" width="512" height="512" viewBox="0 0 512 512"><g><path d="M476,40h-4V24a8,8,0,0,0-8-8H432a8,8,0,0,0-8,8V40H376V24a8,8,0,0,0-8-8H336a8,8,0,0,0-8,8V40H280V24a8,8,0,0,0-8-8H240a8,8,0,0,0-8,8V40H184V24a8,8,0,0,0-8-8H144a8,8,0,0,0-8,8V40H88V24a8,8,0,0,0-8-8H48a8,8,0,0,0-8,8V40H36A28.031,28.031,0,0,0,8,68V420a28.031,28.031,0,0,0,28,28H48v28a20.02,20.02,0,0,0,20,20H444a20.02,20.02,0,0,0,20-20V448h12a28.031,28.031,0,0,0,28-28V68A28.031,28.031,0,0,0,476,40Zm-36-8h16V64H440Zm-96,0h16V64H344Zm-96,0h16V64H248Zm-96,0h16V64H152ZM56,32H72V64H56Zm76.67,448H120.88c2.38-20.09,8.1-54.74,17.39-71.46,4.11,1.73,7.62,3.35,10.15,4.62a7.84,7.84,0,0,0,4.78.74,210.745,210.745,0,0,0,.83,32A80.424,80.424,0,0,0,132.67,480Zm46.39-107.73a8.025,8.025,0,0,0,6.83,1.5,38.085,38.085,0,0,1,15.1.19,32.129,32.129,0,0,1,15.92,8.5c-5.7.3-12.57.79-19.79,1.59-21.87,2.43-37.07,6.56-46.17,12.58-9.8-4.52-32.06-13.89-52.18-15.87,1.05-.87,2.15-1.74,3.33-2.57,12.11-8.65,25.21-10.25,38.93-4.76a8.007,8.007,0,0,0,10.66-5.23c.06-.21,6.38-20.89,23.23-28.9,6.36-3.03,13.59-3.95,21.6-2.77C186.6,343.75,176,354.22,176,366A8.006,8.006,0,0,0,179.06,372.27ZM149.67,480a64.452,64.452,0,0,1,19.13-25.8,64,64,0,0,1,80.4,0A64.452,64.452,0,0,1,268.33,480ZM448,476a4,4,0,0,1-4,4H285.33a79.98,79.98,0,0,0-116.09-45.4c-.7-12.65-.31-22.72,1.16-29.34,16.82-5.18,44.08-7.25,61.6-7.26a8,8,0,0,0,7.16-11.58c-10.55-21.09-28.09-28.09-42.14-29.23,5.65-5.94,15.05-12.27,22.56-16.03a8,8,0,0,0-.43-14.51c-19.15-8.21-36.35-8.82-51.1-1.8-15.92,7.57-24.67,22.16-28.77,31.19-16.4-4.26-32.51-1.04-46.99,9.49a77.263,77.263,0,0,0-19.15,20.35,8,8,0,0,0,9.39,11.71c9.9-3.3,26.26.36,40.7,5.24-5.46,10.76-10.13,26.51-13.94,47.03-2.26,12.17-3.71,23.24-4.5,30.14H68a4,4,0,0,1-4-4V180a4,4,0,0,1,4-4H444a4,4,0,0,1,4,4Zm40-56a12.01,12.01,0,0,1-12,12H464V180a20.02,20.02,0,0,0-20-20H68a20.02,20.02,0,0,0-20,20V432H36a12.01,12.01,0,0,1-12-12V104H488Zm0-332H24V68A12.01,12.01,0,0,1,36,56h4V72a8,8,0,0,0,8,8H80a8,8,0,0,0,8-8V56h48V72a8,8,0,0,0,8,8h32a8,8,0,0,0,8-8V56h48V72a8,8,0,0,0,8,8h32a8,8,0,0,0,8-8V56h48V72a8,8,0,0,0,8,8h32a8,8,0,0,0,8-8V56h48V72a8,8,0,0,0,8,8h32a8,8,0,0,0,8-8V56h4a12.01,12.01,0,0,1,12,12Z"/><path d="M368,224a32,32,0,1,0,32,32A32.036,32.036,0,0,0,368,224Zm0,48a16,16,0,1,1,16-16A16.019,16.019,0,0,1,368,272Z"/><path d="M368,216a8,8,0,0,0,8-8v-8a8,8,0,0,0-16,0v8A8,8,0,0,0,368,216Z"/><path d="M368,296a8,8,0,0,0-8,8v8a8,8,0,0,0,16,0v-8A8,8,0,0,0,368,296Z"/><path d="M424,248h-8a8,8,0,0,0,0,16h8a8,8,0,0,0,0-16Z"/><path d="M328,256a8,8,0,0,0-8-8h-8a8,8,0,0,0,0,16h8A8,8,0,0,0,328,256Z"/><path d="M401.941,230.059a7.982,7.982,0,0,0,5.658-2.343l5.656-5.656a8,8,0,0,0-11.315-11.315l-5.656,5.656a8,8,0,0,0,5.657,13.658Z"/><path d="M328.4,284.284l-5.656,5.656a8,8,0,0,0,11.315,11.315l5.656-5.656A8,8,0,0,0,328.4,284.284Z"/><path d="M407.6,284.284A8,8,0,0,0,396.284,295.6l5.656,5.656a8,8,0,0,0,11.315-11.315Z"/><path d="M328.4,227.716A8,8,0,0,0,339.716,216.4l-5.656-5.656a8,8,0,0,0-11.315,11.315Z"/></g></svg>
